<?xml version="1.0" encoding="UTF-8" standalone="no"?>
<!-- Created with Inkscape (http://www.inkscape.org/) -->

<svg
   xmlns:dc="http://purl.org/dc/elements/1.1/"
   xmlns:cc="http://creativecommons.org/ns#"
   xmlns:rdf="http://www.w3.org/1999/02/22-rdf-syntax-ns#"
   xmlns:svg="http://www.w3.org/2000/svg"
   xmlns="http://www.w3.org/2000/svg"
   xmlns:sodipodi="http://sodipodi.sourceforge.net/DTD/sodipodi-0.dtd"
   xmlns:inkscape="http://www.inkscape.org/namespaces/inkscape"
   id="svg2"
   version="1.1"
   inkscape:version="0.48.4 r9939"
   width="280"
   height="400"
   sodipodi:docname="Kyivold.svg">
  <metadata
     id="metadata8">
    <rdf:RDF>
      <cc:Work
         rdf:about="">
        <dc:format>image/svg+xml</dc:format>
        <dc:type
           rdf:resource="http://purl.org/dc/dcmitype/StillImage" />
        <dc:title />
      </cc:Work>
    </rdf:RDF>
  </metadata>
  <defs
     id="defs6" />
  <sodipodi:namedview
     pagecolor="#ffffff"
     bordercolor="#666666"
     borderopacity="1"
     objecttolerance="10"
     gridtolerance="10"
     guidetolerance="10"
     inkscape:pageopacity="0"
     inkscape:pageshadow="2"
     inkscape:window-width="1680"
     inkscape:window-height="988"
     id="namedview4"
     showgrid="false"
     inkscape:zoom="2.7011479"
     inkscape:cx="190.48986"
     inkscape:cy="258.27223"
     inkscape:window-x="0"
     inkscape:window-y="27"
     inkscape:window-maximized="1"
     inkscape:current-layer="svg2"
     fit-margin-top="0"
     fit-margin-left="0"
     fit-margin-right="0"
     fit-margin-bottom="0" />
  <g
     id="g3002"
     transform="translate(-86.161203,-13.422582)" />
  <g
     id="g3006"
     transform="translate(-73.02241,-25.383789)" />
  <g
     id="g3979"
     transform="translate(-86.161203,-13.422582)" />
  <g
     id="g3983"
     transform="matrix(0.26848206,0.96328469,-0.96328469,0.26848206,445.56066,50.443848)" />
  <g
     transform="matrix(-0.26848206,0.96328469,0.96328469,0.26848206,-170.44132,50.443848)"
     id="g3989" />
  <g
     id="g3995"
     transform="matrix(0.78631522,0.61782554,0.61782554,-0.78631522,-274.21862,531.40899)" />
  <g
     transform="matrix(0.83439114,-0.55117279,0.55117279,0.83439114,-247.91518,190.61563)"
     id="g4001" />
  <g
     id="g4272">
    <path
       sodipodi:nodetypes="cscscc"
       inkscape:connector-curvature="0"
       id="rect2983-3"
       d="m 280,22.697424 0,208.028666 C 280,296.04599 188.85176,365.83919 140,400 85.52802,363.25993 0,296.42788 0,230.72609 L 0,22.697424 c 65.203292,-30.2402213 217.54758,-30.2862343 280,0 z"
       style="fill:#000000;fill-opacity:1;stroke:none" />
    <path
       style="fill:#ffffff;fill-opacity:1;stroke:none"
       d="M 279.5,23.197424 279.5,231.2 c 0,63.53419 -90.64824,133.83919 -139.5,168 C 85.52802,362.45993 0.6,295.4988 0.6,231.2 l 0,-208.002576 c 65.203292,-30.2402213 216.44758,-30.2862343 278.9,0 z"
       id="path4270"
       inkscape:connector-curvature="0"
       sodipodi:nodetypes="cscscc" />
  </g>
  <g
     id="g3019"
     transform="translate(1.020596,0)">
    <path
       sodipodi:nodetypes="ccszsc"
       inkscape:connector-curvature="0"
       id="rect2982"
       d="m 18.589798,66.926168 240.779212,0 0,153.740832 C 259.36901,278.70002 201.7053,328.79958 140,328.993 78.294691,329.18642 18.589798,278.80743 18.589798,220.667 z"
       style="fill:#000000;fill-rule:evenodd;stroke:none" />
    <path
       sodipodi:nodetypes="cszsccccszsc"
       inkscape:connector-curvature="0"
       id="path3019"
       d="m 19.171383,67.510602 0,152.351538 c 0,61.25276 62.576382,108.70594 120.828617,108.52704 58.25223,-0.17889 118.82886,-47.23072 118.82886,-108.52704 l 0,-152.351538 z M 21.355302,70 l 235.169348,0 0,148.68149 C 256.52465,283.36355 194.31703,325.88164 140,326.26081 85.682961,326.63999 21.355302,283.17183 21.355302,218.47941 z"
       style="fill:#ffd700;fill-opacity:1;fill-rule:evenodd;stroke:none" />
    <path
       sodipodi:nodetypes="cccccscccccccccccccsccscsccccccssscccccccccsccccccccccccccc"
       inkscape:connector-curvature="0"
       d="m 136.23234,245.29646 c 0.26167,-5.04417 0.19403,-9.83825 0.62229,-15.87835 -7.77908,8.44773 -11.88381,14.17555 -14.70533,21.33654 8.82444,1.40141 5.42443,-6.38405 14.08304,-5.45819 z M 21.9,70.5 l 0,146.8 c 0,68.68038 68.090835,108.23438 116.67,108.36492 l 0,-7.57869 -8.02917,-0.0316 c 6.90867,-13.64221 4.58329,-26.46078 5.31798,-61.69308 -8.96285,-2.26398 0.88012,7.01059 -17.53668,6.5265 -16.6212,38.40642 -37.087684,21.99343 -56.946747,29.55691 6.439136,-14.95227 -3.369931,-38.47953 30.388479,-48.56681 -5.210591,-1.7467 -9.851915,-11.16288 -19.657548,-13.32587 0.0391,1.28408 -0.272321,1.31715 -3.925178,1.32627 -3.652857,0.009 -3.980344,0.17428 -3.988488,-1.04207 -2.748314,1.68941 -5.594894,4.09043 -7.628774,6.7261 -1.615725,-2.2359 -2.921458,-3.92205 -4.589927,-7.26292 3.98164,-2.73341 8.225554,-3.86987 12.123737,-4.38933 0.01752,-3.46069 0.05693,-3.16889 4.083452,-3.15779 4.026534,0.0111 3.957299,-0.57314 3.925178,2.33677 l 60.745306,-0.0315 C 76.416545,207.26658 72.259979,221.93007 54.917831,208.85829 37.575683,195.78651 42.746799,182.8054 26.973,165.239 c 20.913762,2.00004 23.155607,-2.05446 42.695905,-2.9581 19.540299,-0.90364 43.100695,36.46042 66.823005,57.47176 -0.6477,-13.67853 0.0987,-25.94055 -2.69065,-41.36704 l -33.42733,0 L 137.837,75.9 l 0,-5.4 z m 34.663874,30.9461 c 1.05764,-0.0557 2.272034,0.31674 3.144126,0.98446 3.001229,2.29791 -0.034,6.0917 -2.162832,4.06301 -1.23628,-1.17813 -3.898457,-0.50275 -4.289455,1.25231 C 63.444181,111.33986 60.5,118.61957 60.5,118.61957 l -6.953,0 c 0.661841,-4.48794 -0.343835,-7.40335 -5.773,-7.295 l 0,7.295 -8.034,0 0,-15.3104 8.034,0 0,4.5994 c 3.845489,-4.61006 6.463058,-6.33999 8.789874,-6.46247 z m 29.334126,1.86844 7.997,0 0,8.78903 5.402672,-8.78903 7.708328,0 0,15.33603 -8.008,0 0,-8.615 -5.298,8.615 -7.802,0 z m -9.459048,123.56697 c 9.280976,2.62842 15.235497,8.83672 25.311578,13.08909 9.91334,-3.79309 17.71061,-7.61335 28.18117,-13.12759 z"
       style="fill:#cc0000;fill-opacity:1;stroke:none"
       id="path3042" />
    <path
       sodipodi:nodetypes="ccccccccscsccscccccccccccccscccscscscsssccccccccccccccccccccccc"
       inkscape:connector-curvature="0"
       d="m 141.10914,245.29649 c -0.26167,-5.04417 -0.19402,-9.83825 -0.62228,-15.87835 7.77908,8.44773 11.78395,14.17555 14.60547,21.33654 -8.82444,1.40141 -5.32457,-6.38405 -13.98319,-5.45819 z M 138.292,75.9 l 38.65535,102.48562 -33.42733,0 c -2.78927,15.42649 -2.04294,27.68851 -2.69064,41.36704 23.72231,-21.01134 47.2827,-58.3754 66.823,-57.47176 19.54029,0.90364 22.25381,5.38975 42.49562,2.95767 -16.03607,18.68106 -10.4024,30.54794 -27.74455,43.61972 -17.34215,13.07178 -21.49871,-1.59171 -77.93379,16.19946 l 60.74531,0.0316 c -0.0321,-2.90991 -0.10136,-2.32565 3.92517,-2.33677 4.0265,-0.0111 4.06593,-0.3029 4.08346,3.15779 3.89818,0.51946 8.14209,1.65592 12.12373,4.38933 -1.66847,3.34087 -2.9742,5.02702 -4.58992,7.26292 -2.03388,-2.63567 -4.88046,-5.03669 -7.62878,-6.72609 -0.008,1.21635 -0.33563,1.05116 -3.98849,1.04207 -3.65285,-0.009 -3.96427,-0.0422 -3.92517,-1.32628 -9.80564,2.16299 -14.14738,11.67954 -19.35797,13.42625 33.75841,10.08727 23.64976,33.51416 30.0889,48.46643 -19.85907,-7.56348 -40.32554,8.84951 -56.94675,-29.55691 -18.74133,0.53046 -8.38837,-8.60503 -17.53668,-6.5265 0.73469,35.2323 -1.59069,48.05087 5.31798,61.69308 l -7.71345,0.0316 0,7.57869 C 193.00575,325.58872 255.9,283.82544 255.9,217.3 l 0,-146.8 -117.608,0 z m 43.94168,23.435555 c 2.05484,-0.01398 3.05389,1.496465 3.22877,2.637005 0.13757,-1.13779 1.43441,-2.660639 3.36055,-2.637005 1.92614,0.02363 3.26058,1.579645 3.317,3.484165 0.0564,1.9045 -1.43279,3.38385 -3.317,3.38385 -1.88421,0 -3.2794,-1.35465 -3.36055,-2.43603 -0.15607,1.08414 -1.23467,2.39842 -3.22877,2.43603 -1.9941,0.0376 -3.49168,-1.47199 -3.49168,-3.38385 0,-1.91187 1.43684,-3.470187 3.49168,-3.484165 z m 34.58832,4.109985 21.0389,0 c -5e-4,3.31649 -0.49343,5.4632 -3.13381,7.14235 2.41708,2.17226 3.13482,4.83445 3.13381,8.01168 l -21.0389,0 z m 7.744,1.68502 0,4.56801 c 3.80473,0.0988 5.94683,-1.12112 6.437,-4.56801 z m -43.134,1.13115 7.997,0 0,12.35786 -7.997,0 z m 43.134,6.00986 0,4.489 6.437,0 c -0.26076,-2.31849 -1.56311,-4.66484 -6.437,-4.489 z m -23.79825,114.60997 c -9.28098,2.62842 -15.2355,8.83672 -25.31158,13.08909 -9.91334,-3.79309 -17.71061,-7.61335 -28.18117,-13.12759 z"
       style="fill:#005bb2;fill-opacity:1;stroke:none"
       id="path3844" />
    <g
       transform="translate(0.80043,0)"
       id="g4262">
      <path
         inkscape:connector-curvature="0"
         id="path3826"
         style="fill:#ffd700;fill-opacity:1;stroke:none"
         d="m 237.90049,182.57237 -11.73301,-5.14075 c 0,0 10.08945,-5.62461 11.73547,-7.55129 -3.48334,0.65154 -13.45949,5.71004 -13.45949,5.71004 l -0.23056,-10.81558 c 8.64284,2.00754 16.46889,1.96279 24.15339,0.99736 -4.46157,5.02881 -7.71772,10.47902 -10.4658,16.80022 z m -19.39283,-1.0207 -8.85177,5.06781 22.21654,10.18389 c 1.30809,-2.25301 2.57393,-5.05179 3.64155,-7.77979 z m -11.08394,-18.88173 -1e-5,21.87634 10.23726,-5.52852 -0.38486,-15.37371 c -3.22295,-0.50563 -6.27913,-0.77955 -9.85239,-0.97411 z m 14.23616,45.62677 -27.0135,-13.61478 8.29622,-4.53468 25.28828,12.00263 c -1.96912,2.18316 -3.50952,3.86323 -6.571,6.14683 z m -29.5376,-15.43325 -0.40082,-24.46908 c 2.02455,-1.47238 4.91878,-3.34317 9.54451,-5.00901 l -0.30789,24.56002 z m -6.57112,3.68728 -8.50652,4.7591 -1.64121,-18.16219 c 2.48047,-2.78761 5.98735,-6.0872 9.23661,-9.25828 z m 11.94318,18.14441 -18.16534,-11.56686 8.15901,-4.53032 27.17948,13.84176 c -5.25709,2.6564 -12.11091,2.1359 -17.17315,2.25542 z m -26.32436,-10.1605 -1.92429,-14.79058 -10.00634,11.03356 1.30852,9.87561 z m -1.23155,13.05354 -7.54324,-4.80894 10.47193,-6.04205 13.38934,8.47027 c -5.43935,0.33774 -10.87868,1.47308 -16.31803,2.38072 z m -4.28856,32.41153 -7.62366,-6.9491 -1.92505,10.84996 c 1.43593,7.63226 4.79754,14.34384 8.84571,20.69455 z m 15.00987,-7.10374 -12.31742,5.38178 -8.07845,-7.02381 7.8353,-3.53069 c 4.22073,1.72423 8.06771,3.3942 12.56057,5.17272 z m -1.06775,19.71224 -8.86408,-8.21056 -0.3688,26.7714 c 2.26926,2.06887 5.70551,4.62463 8.81229,5.81503 z m 21.35105,-10.1829 -19.15586,7.95077 -8.70972,-7.85597 15.67575,-6.82953 c 2.70033,0.97309 8.11953,3.19262 12.18983,6.73473 z m -8.04212,22.06708 -8.86409,-8.00803 -0.47795,21.9726 c 3.25165,0.70774 6.08756,0.88318 9.13976,1.09355 z m 16.90695,-7.91943 -14.71176,5.88984 -8.70972,-7.85598 18.57603,-7.98082 c 2.42715,3.14982 3.83342,5.97153 4.84545,9.94696 z m 1.39938,6.12136 -11.50102,4.18503 c 4.38996,4.35537 10.05502,9.15983 12.18986,13.1174 -3.56837,-1.31313 -9.18811,-6.97096 -13.68396,-10.76246 l 0,10.31713 c 5.85013,0.12385 11.62995,0.47173 16.44016,2.41104 -2.21298,-4.67423 -2.60444,-12.28709 -3.44504,-19.26814 z M 37.865362,182.57237 49.598374,177.43162 c 0,0 -10.089451,-5.62461 -11.735473,-7.55129 3.48334,0.65154 13.459493,5.71004 13.459493,5.71004 l 0.230557,-10.81558 c -8.642838,2.00754 -16.468884,1.96279 -24.153381,0.99736 4.461566,5.02881 7.717712,10.47902 10.465792,16.80022 z m 19.392834,-1.0207 8.851769,5.06781 -22.216541,10.18389 c -1.308093,-2.25301 -2.573925,-5.05179 -3.641553,-7.77979 z m 11.083944,-18.88173 1e-5,21.87634 -10.23726,-5.52852 0.38486,-15.37371 c 3.222941,-0.50563 6.279131,-0.77955 9.85239,-0.97411 z m -14.236161,45.62677 27.013494,-13.61478 -8.296217,-4.53468 -25.28828,12.00263 c 1.969123,2.18316 3.509515,3.86323 6.571003,6.14683 z m 29.537601,-15.43325 0.400814,-24.41351 c -2.235275,-1.62212 -5.068423,-3.60427 -9.544505,-5.06458 l 0.307886,24.56002 z m 6.571114,3.68728 8.506525,4.7591 1.641211,-18.16219 c -2.231771,-2.47749 -6.018438,-6.23417 -9.236619,-9.15716 z m -11.943179,18.14441 18.165341,-11.56686 -8.159013,-4.53032 -27.179475,13.84176 c 5.257085,2.6564 12.110913,2.1359 17.173147,2.25542 z m 26.324365,-10.1605 1.92429,-14.79058 10.00634,11.03356 -1.30852,9.87561 z m 1.23154,13.05354 7.54324,-4.80894 -10.47193,-6.04205 -13.389333,8.47027 c 5.439346,0.33774 10.878683,1.47308 16.318023,2.38072 z m 24.67823,100.00542 c 7.61622,-14.9848 3.1691,-29.96381 5.90752,-89.0799 -4.27104,4.66019 -9.04974,9.53034 -13.26995,17.31234 l -1.69864,-6.17353 14.04237,-12.39105 -1.96825,-1.9921 -14.00722,12.4103 -5.84381,-2.55337 c 7.2787,-3.51017 14.87489,-7.22022 19.20221,-10.15949 -6.12867,-2.10258 -13.21733,-4.23862 -20.48589,-5.91947 l 5.98008,-3.51945 14.79395,8.79347 1.39135,-2.39422 -14.62814,-8.54901 1.08093,-7.76125 c 4.81285,5.40325 9.14617,9.85371 15.15575,15.18468 -0.45536,-17.84358 0.0772,-27.76899 -2.44728,-42.57105 l 8.3446,0 c -2.52447,14.80206 -1.99192,24.72747 -2.44728,42.57105 6.00958,-5.33097 10.3429,-9.78143 15.15574,-15.18468 l 1.08093,7.76125 -14.62813,8.54901 1.39134,2.39422 14.79396,-8.79347 5.98008,3.51945 c -7.26856,1.68085 -14.35722,3.81689 -20.48589,5.91947 4.32732,2.93927 11.92351,6.64932 19.2022,10.15949 l -5.8438,2.55337 -14.00723,-12.4103 -1.96825,1.9921 14.04238,12.39105 -1.69865,6.17353 c -4.22021,-7.782 -8.99891,-12.65215 -13.26995,-17.31234 2.73843,59.11609 -1.70869,74.0951 5.90752,89.0799 z m -20.38966,-67.59389 7.62366,-6.9491 1.92505,10.84996 c -1.43593,7.63226 -4.79755,14.34384 -8.84572,20.69455 z m -15.009876,-7.10374 12.317426,5.38178 8.07845,-7.02381 -7.8353,-3.53069 c -4.22073,1.72423 -8.06771,3.3942 -12.560576,5.17272 z m 1.06775,19.71224 8.864086,-8.21056 0.3688,26.7714 c -2.26926,2.06887 -5.705513,4.62463 -8.812299,5.81503 z m -21.351046,-10.1829 19.155853,7.95077 8.709719,-7.85597 -15.67574,-6.82953 c -2.700331,0.97309 -8.119539,3.19262 -12.189832,6.73473 z m 8.042118,22.06708 8.864087,-8.00803 0.47795,21.9726 c -3.251649,0.70774 -6.087552,0.88318 -9.139761,1.09355 z m -16.906954,-7.91943 14.711761,5.88984 8.709723,-7.85598 -18.576031,-7.98082 c -2.427148,3.14982 -3.833416,5.97153 -4.845453,9.94696 z m -1.39938,6.12136 11.501027,4.18503 c -4.38996,4.35537 -10.055021,9.15983 -12.189863,13.1174 3.568368,-1.31313 9.188109,-6.97096 13.683963,-10.76246 l 0,10.31713 c -5.850137,0.12385 -11.629955,0.47173 -16.440167,2.41104 2.21298,-4.67423 2.604444,-12.28709 3.44504,-19.26814 z m 72.966198,-155.7854 7.26253,-19.861751 -14.69537,0 z m 7.72112,20.37541 7.26252,-19.86174 -14.69537,0 z m -15.14359,0 7.26252,-19.86174 -14.69537,0 z m 7.66701,20.2502 7.26252,-19.86173 -14.69537,0 z m 15.17499,0 7.26253,-19.86173 -14.69538,0 z m -30.34998,0 7.26252,-19.86173 -14.69537,0 z m 37.99775,20.23216 7.26252,-19.86174 -14.69537,0 z m -15.1628,0 7.26253,-19.86174 -14.69538,0 z m -15.16276,0 7.26252,-19.86174 -14.69537,0 z m -15.16278,0 7.26252,-19.86174 -14.69537,0 z" />
      <path
         inkscape:connector-curvature="0"
         id="path3797"
         style="fill:#ffd500;fill-opacity:1;stroke:none"
         d="m 137.03608,77.121873 -0.0304,19.443048 -6.99746,0 z m 7.98589,20.32631 -0.0304,19.443067 -6.99746,0 z m -15.39683,0 -0.0304,19.443067 -6.99745,0 z m 23.16742,20.368897 -0.0304,19.44304 -6.99746,0 z m -15.17392,0 -0.0304,19.44304 -6.99746,0 z m -15.39682,0 -0.0304,19.44304 -6.99746,0 z m -14.70809,40.50658 -0.0304,19.44304 -6.99745,0 z m 15.09294,0 -0.0304,19.44304 -6.99746,0 z m 15.19424,0 -0.0304,19.44304 -6.99746,0 z m 30.38139,0 -0.0304,19.44304 -6.99745,0 z m -15.21753,0 -0.0304,19.44304 -6.99746,0 z m 7.51912,-20.30661 -0.0304,19.44305 -6.99745,0 z m -15.19424,0 -0.0304,19.44305 -6.99745,0 z m -15.19424,0 -0.0304,19.44305 -6.99745,0 z m -15.19424,0 -0.0304,19.44305 -6.99745,0 z m 95.60758,150.75559 c -3.01137,-4.91386 -34.82042,-33.00426 -68.21899,-62.86557 l -1.2859,1.34094 c 39.67721,34.69213 64.22716,58.32807 69.50489,61.52463 z m 25.22229,-117.78989 c -7.49897,2.54992 -49.97691,25.63513 -93.93666,51.11884 l 0.98034,1.57714 c 45.64356,-27.51122 87.6581,-48.34001 92.95632,-52.69598 z M 65.2366,288.77264 c 3.011376,-4.91386 34.82043,-33.00426 68.21899,-62.86557 l 1.2859,1.34094 C 95.06428,261.94014 70.514329,285.57608 65.2366,288.77264 z M 40.014314,170.98275 c 7.498965,2.54992 49.976913,25.63513 93.936666,51.11884 l -0.98034,1.57714 C 87.327069,196.16751 45.312535,175.33872 40.014314,170.98275 z" />
      <path
         sodipodi:nodetypes="cccccccccccccccccccccccccccccccccccccccccccccccccccccccccccccccccccccccccccccccccccccccccccccccccccccccccccccccccccccccccccccccccccccccccccccccccccccccccccccccccccccccccccccccccccccccccccccccccccccccccccccccccccccccccccccccccccccccccccccccc"
         inkscape:connector-curvature="0"
         id="path3857"
         style="fill:#ffd700;fill-opacity:1;stroke:none"
         d="m 204.66338,256.38653 c -0.95933,-1.27347 -2.34366,-2.71023 -3.56116,-3.68409 l -19.03676,7.98219 4.0008,3.68409 z m 5.19227,10.48035 c 0.56497,1.99834 0.82671,3.40375 1.22719,5.53444 l -11.61019,4.27972 -4.21883,-4.00436 z m -11.98513,12.1711 -4.69426,-4.31073 -0.21761,14.79293 4.88078,0 z m -14.17836,-12.80528 -3.78098,-3.37709 -0.43965,24.27551 c 1.12224,0.47925 2.34432,0.8921 3.71503,1.2061 z m -13.30327,-12.09769 -4.41447,-3.90757 -0.77186,24.81433 c 1.29748,1.85103 2.79537,3.72179 4.76289,5.73313 z m 50.84923,-45.64163 -27.1263,-13.63989 -6.19904,3.50865 27.17026,13.90306 c 1.73373,-0.87045 4.32327,-2.27394 6.15508,-3.77182 z m 10.45595,-11.42123 c -1.11328,1.83407 -2.14165,3.44572 -3.35749,4.80692 l -25.18113,-11.97079 6.15539,-3.13225 z m 6.02265,-14.14808 -11.92332,-5.32006 -7.02798,3.79035 16.81845,7.2933 z m -13.88787,-18.16686 0.21762,11.00941 -6.09322,3.16326 -0.30295,-15.19609 z m -16.78742,19.90997 -5.75124,3.12866 0.27978,-24.47312 c 1.47877,-0.35973 3.49431,-0.76528 5.47146,-0.64334 z m -15.79261,-15.96965 0.40414,24.37402 -5.78233,3.22529 -0.80829,-22.63881 c 1.94416,-1.55834 3.6999,-3.24757 6.18648,-4.9605 z m -2.94036,76.81217 -7.25418,-2.36834 -12.44205,5.39455 4.17665,3.64024 z m -20.70743,-7.98219 -5.0999,-2.19291 -5.97923,2.58763 3.42926,3.07008 z m -9.89597,5.22594 -3.10878,-2.79113 -1.74091,6.34912 c 0.89389,1.97291 1.63234,3.52083 2.96147,7.04826 z m 39.07545,-27.98833 -17.88051,-11.447 -5.67147,3.24551 13.59874,8.62666 c 2.57514,-0.20193 4.15456,-0.44502 9.95324,-0.42517 z m -20.12272,-13.25892 -5.14389,2.90838 -1.89048,-15.08722 5.3637,-5.78928 z m -14.68425,11.50458 -4.08873,2.32449 6.02318,3.64022 5.53957,-1.22803 z m -1.84652,-2.1929 -3.91287,2.32448 -1.09912,-7.85061 3.69304,-4.07882 z m -89.061333,45.56865 c 0.959324,-1.27347 2.343661,-2.71023 3.561155,-3.68409 l 19.036762,7.98219 -4.000795,3.68409 z m -5.192276,10.48035 c -0.564963,1.99834 -0.826709,3.40375 -1.227188,5.53444 l 11.610191,4.27972 4.218833,-4.00436 z m 11.985135,12.1711 4.69426,-4.31073 0.217612,14.79293 -4.880785,0 z m 14.178362,-12.80528 3.780976,-3.37709 0.43965,24.27551 c -1.122236,0.47925 -2.344319,0.8921 -3.715032,1.2061 z m 13.303262,-12.09769 4.41448,-3.90757 0.77185,24.81433 c -1.29747,1.85103 -2.79536,3.72179 -4.76288,5.73313 z m -50.84922,-45.64163 27.126296,-13.63989 6.199037,3.50865 -27.170258,13.90306 c -1.733734,-0.87045 -4.323268,-2.27394 -6.155075,-3.77182 z M 44.034994,197.07215 c 1.113281,1.83407 2.141648,3.44572 3.357491,4.80692 l 25.181129,-11.97079 -6.155389,-3.13225 z m -6.022653,-14.14808 11.923325,-5.32006 7.027984,3.79035 -16.818453,7.2933 z m 13.88787,-18.16686 -0.217612,11.00941 6.093214,3.16326 0.302953,-15.19609 z m 16.787426,19.90997 5.751242,3.12866 -0.279786,-24.47312 c -1.478764,-0.35973 -3.494311,-0.76528 -5.471456,-0.64334 z m 15.792609,-15.96965 -0.404136,24.37402 5.782329,3.22529 0.808283,-22.63881 c -1.944153,-1.55834 -3.699898,-3.24757 -6.186476,-4.9605 z m 2.940359,76.81217 7.254185,-2.36834 12.44205,5.39455 -4.17666,3.64024 z m 20.707425,-7.98219 5.09991,-2.19291 5.97923,2.58763 -3.42926,3.07008 z m 9.89597,5.22594 3.10878,-2.79113 1.74092,6.34912 c -0.8939,1.97291 -1.63235,3.52083 -2.96147,7.04826 z m -39.07544,-27.98833 17.88051,-11.447 5.67146,3.24551 -13.59873,8.62666 c -2.57514,-0.20193 -4.154561,-0.44502 -9.95324,-0.42517 z m 20.122714,-13.25892 5.143886,2.90838 1.89049,-15.08722 -5.36371,-5.78928 z m 14.684246,11.50458 4.08873,2.32449 -6.02318,3.64022 -5.53956,-1.22803 z m 1.84653,-2.1929 3.91286,2.32448 1.09912,-7.85061 -3.69304,-4.07882 z m 21.88948,-133.622495 0.0319,19.392343 7.12017,0 z m 7.86801,20.826101 0.0319,18.887384 7.02455,0 z m -15.36644,0 0.0319,18.887384 7.02455,0 z m 23.15086,20.734464 0.0304,18.46408 6.89626,0 z m -15.16385,0.30333 0.0304,18.16075 6.69357,0 z m -15.34474,-0.50028 0.0304,18.71142 6.9938,0 z m 38.17165,20.38861 0.0304,18.4321 6.89616,0 z m -15.17398,0.30285 0.0304,18.12925 6.69357,0 z m -15.16385,0 0.0304,18.12925 6.69356,0 z m -15.14359,0 0.0304,18.12925 6.69357,0 z m 53.23048,20.18489 0.0304,18.33135 6.79486,0 z m -15.19424,0.2021 0.0304,18.12925 6.69357,0 z m -15.19424,0 0.0304,18.12925 6.69357,0 z m -15.14359,0 0.0304,18.12925 6.69357,0 z m -15.14359,0 0.0304,18.12925 6.69357,0 z" />
      <path
         sodipodi:nodetypes="ccccccccccssssssssssssssssssssssssssssssssssssccccccccccccccccssssssssssssssssssssssssssssssssssssccccccccccccccccsssssssssscccccccccccccccccccccccccccccccccssccccccc"
         inkscape:connector-curvature="0"
         id="path3883"
         style="fill:#ffffff;fill-opacity:1;stroke:none"
         d="m 158.146,262.60968 c -2.42545,-6.47866 -1.62477,-7.05502 -3.64531,-11.57591 -9.3913,1.45785 -5.83318,-6.27178 -14.15525,-5.3582 l 0.29008,10.22747 c 9.63251,-1.87375 -0.76329,7.00848 17.51048,6.70664 z m -40.53418,0 c 2.42545,-6.47866 1.62477,-7.05502 3.64531,-11.57591 9.3913,1.45785 5.83318,-6.27178 14.15525,-5.3582 l -0.29008,10.22747 c -9.63251,-1.87375 0.76329,7.00848 -17.51048,6.70664 z m 93.62428,-39.328 -0.1666,0 c -0.32425,0 -0.58529,0.2604 -0.58529,0.58387 l 0,6.95188 c 0,0.32346 0.26104,0.58386 0.58529,0.58386 l 0.1666,0 c 0.32425,0 0.58528,-0.2604 0.58528,-0.58386 l 0,-6.95188 c 0,-0.32347 -0.26103,-0.58387 -0.58528,-0.58387 z m -1.82317,0 -0.1666,0 c -0.32426,0 -0.5853,0.2604 -0.5853,0.58387 l 0,6.95188 c 0,0.32346 0.26104,0.58386 0.5853,0.58386 l 0.1666,0 c 0.32425,0 0.58529,-0.2604 0.58529,-0.58386 l 0,-6.95188 c 0,-0.32347 -0.26104,-0.58387 -0.58529,-0.58387 z m -1.82316,0 -0.1666,0 c -0.32426,0 -0.58529,0.2604 -0.58529,0.58387 l 0,6.95188 c 0,0.32346 0.26103,0.58386 0.58529,0.58386 l 0.1666,0 c 0.32425,0 0.58529,-0.2604 0.58529,-0.58386 l 0,-6.95188 c 0,-0.32347 -0.26104,-0.58387 -0.58529,-0.58387 z m -1.82317,0 -0.16661,0 c -0.32424,0 -0.58528,0.2604 -0.58528,0.58387 l 0,6.95188 c 0,0.32346 0.26104,0.58386 0.58528,0.58386 l 0.16661,0 c 0.32425,0 0.58528,-0.2604 0.58528,-0.58386 l 0,-6.95188 c 0,-0.32347 -0.26103,-0.58387 -0.58528,-0.58387 z m 14.14711,13.46891 c -1.85545,-2.36108 -4.58531,-4.7231 -7.56422,-6.48274 l 0.0411,-3.84593 c 3.24732,0.27941 8.03348,1.73526 11.53135,3.99258 -0.84184,1.86551 -2.2926,4.03474 -4.00825,6.33609 z m -15.45738,-10.78744 c -13.45372,3.28806 -17.62296,9.32497 -29.18806,14.31433 2.79788,1.30617 6.0061,2.39114 9.10687,3.49587 6.26049,-2.64269 9.75491,-11.26181 20.07092,-13.60352 z m -0.0926,-0.42441 -59.90098,-0.0505 1.55791,0.90338 55.0222,0.001 z m -139.854498,-2.25706 0.166599,0 c 0.324255,0 0.585293,0.2604 0.585293,0.58387 l 0,6.95188 c 0,0.32346 -0.261038,0.58386 -0.585293,0.58386 l -0.166599,0 c -0.324246,0 -0.585283,-0.2604 -0.585283,-0.58386 l 0,-6.95188 c 0,-0.32347 0.261037,-0.58387 0.585283,-0.58387 z m 1.823177,0 0.166599,0 c 0.324256,0 0.585293,0.2604 0.585293,0.58387 l 0,6.95188 c 0,0.32346 -0.261037,0.58386 -0.585293,0.58386 l -0.166599,0 c -0.324256,0 -0.585293,-0.2604 -0.585293,-0.58386 l 0,-6.95188 c 0,-0.32347 0.261037,-0.58387 0.585293,-0.58387 z m 1.823156,0 0.1666,0 c 0.324255,0 0.585292,0.2604 0.585292,0.58387 l 0,6.95188 c 0,0.32346 -0.261037,0.58386 -0.585292,0.58386 l -0.1666,0 c -0.324255,0 -0.585292,-0.2604 -0.585292,-0.58386 l 0,-6.95188 c 0,-0.32347 0.261037,-0.58387 0.585292,-0.58387 z m 1.823167,0 0.16661,0 c 0.324245,0 0.585282,0.2604 0.585282,0.58387 l 0,6.95188 c 0,0.32346 -0.261037,0.58386 -0.585282,0.58386 l -0.16661,0 c -0.324245,0 -0.585282,-0.2604 -0.585282,-0.58386 l 0,-6.95188 c 0,-0.32347 0.261037,-0.58387 0.585282,-0.58387 z m -14.147113,13.46891 c 1.85546,-2.36108 4.585318,-4.7231 7.564229,-6.48274 l -0.04113,-3.84593 c -3.247323,0.27941 -8.033479,1.73526 -11.531344,3.99258 0.841831,1.86551 2.292598,4.03474 4.008245,6.33609 z m 15.467614,-6.47962 -0.01023,-4.30782 c 13.45372,3.28806 17.622958,9.32497 29.188067,14.31433 -3.061673,1.35002 -6.233471,2.67201 -8.982524,3.42588 -6.781442,-2.89922 -9.910351,-11.40891 -20.195271,-13.53353 z m 0.08235,-4.73223 59.900987,-0.0505 -1.55792,0.90338 -55.022204,0.001 z M 184.46445,102.83375 c 0,1.67422 -1.36054,3.03148 -3.03885,3.03148 -1.67831,0 -3.03885,-1.35726 -3.03885,-3.03148 0,-1.67424 1.36054,-3.031483 3.03885,-3.031483 1.67831,0 3.03885,1.357243 3.03885,3.031483 z m 6.48307,0 c 0,1.67422 -1.36054,3.03148 -3.03885,3.03148 -1.67831,0 -3.03885,-1.35726 -3.03885,-3.03148 0,-1.67424 1.36054,-3.031483 3.03885,-3.031483 1.67831,0 3.03885,1.357243 3.03885,3.031483 z m -9.83087,3.66742 7.05621,0 0,11.66619 -7.05621,0 z m 35.38992,-2.67098 0,14.33639 20.13237,0 c 0.001,-3.06021 -0.88411,-5.45486 -3.22878,-7.54712 2.56128,-1.6173 3.2283,-3.59494 3.22878,-6.78927 z m 14.14963,1.00419 c -0.41035,3.05925 -1.35377,5.33173 -7.31222,5.21668 l 0,-5.21668 z m -7.31222,7.01662 c 5.95845,-0.11504 6.90187,2.25217 7.31222,5.3114 l -7.31222,0 z m -130.691462,6.32556 -7.056944,0 0,-14.35879 7.056944,0 0,9.76894 6.010041,-9.76894 7.056931,0 0,14.35879 -7.056931,0 0,-9.7069 z m -53.156348,-14.35878 7.025847,0 0,5.21011 c 6.462829,-7.76291 9.77647,-7.97974 12.17089,-6.10921 2.394419,1.87057 0.106187,5.01464 -1.994578,3.0835 -1.554503,-1.42901 -4.675633,0.13882 -4.798068,1.92078 10.106631,3.39956 7.324586,10.24994 7.324586,10.24994 l -5.962655,0 c 0.476319,-4.62214 -1.134068,-7.56295 -6.740175,-7.28426 l 0,7.28426 -7.025847,0 z" />
    </g>
  </g>
  <g
     id="g3892"
     transform="translate(-83.5305,-19.809072)">
    <path
       sodipodi:nodetypes="ccccccccccccccccccc"
       inkscape:connector-curvature="0"
       id="path3882"
       d="m 182.82488,78.421604 7.39421,6.730825 10.31198,-13.07411 c 9.83858,6.046676 26.73933,10.454546 42.3983,2.171697 l 14.45964,11.096218 6.84711,-8.651795 -13.1412,-10.310171 c 6.79392,-7.636612 10.89915,-39.670842 -26.00811,-42.988441 l 0.17361,4.6875 c 21.00842,5.234792 22.08342,24.854686 15.84201,32.291667 l -27.64757,-20.3125 7.8125,-10.15625 -16.92708,0.260416 -12.15278,16.319445 9.98264,7.899306 5.98959,-7.638889 26.30208,20.225694 c -14.42417,8.162257 -29.12169,0.54404 -37.4132,-6.72743 z"
       style="fill:#000000;fill-opacity:1;stroke:none" />
    <path
       style="fill:#ffd700;fill-opacity:1;stroke:none"
       d="m 183.73634,78.40005 6.42568,5.754881 10.2547,-12.80194 c 9.92519,6.094905 26.49148,10.550586 42.72052,2.147009 l 14.14467,10.948643 6.1677,-7.736937 -13.19911,-10.31646 c 6.88732,-7.158057 11.3916,-38.530492 -24.5909,-42.39178 l 0.16972,3.527024 c 21.17117,5.95745 22.47062,25.528932 15.3273,33.58 L 212.65897,40.139878 220.2419,30.468 l -15.58043,0.262616 -11.72874,15.670509 9.14247,7.14326 6.02537,-7.580959 27.29663,20.96448 c -12.93465,8.638712 -29.26418,2.401344 -38.23306,-5.84038 z"
       id="path3884"
       inkscape:connector-curvature="0"
       sodipodi:nodetypes="ccccccccccccccccccc" />
  </g>
  <g
     id="g4025"
     transform="translate(-83.64188,-11.622792)">
    <path
       sodipodi:nodetypes="csssscccccccccccccssssccsssssssscc"
       inkscape:connector-curvature="0"
       id="rect4011"
       d="m 233.05,354.05 1.15923,0 c 0.45071,0 0.81355,0.28736 0.81355,0.73807 l 0,2.3484 c 0,0.4507 -0.36284,0.76354 -0.81355,0.76354 l -7.33046,0 c -0.39868,2.22679 -1.06923,2.99782 -2.39515,3.61481 l 6.94121,10.29732 12.93953,4.45099 -8.66165,10.40018 0.43486,12.9589 -12.44796,-4.33733 -13.0572,4.26249 1.22134,-12.88386 -8.93435,-10.47126 13.13872,-4.33808 6.96972,-10.35855 c -1.3229,-0.41145 -2.18327,-1.38159 -2.47129,-3.59563 l -7.48378,2e-5 c -0.4507,0 -0.81354,-0.31284 -0.81354,-0.76354 l 0,-2.3484 c 0,-0.45071 0.36284,-0.73807 0.81354,-0.73807 l 1.38723,0 0,-6.85 -1.38723,0 c -0.4507,0 -0.81354,-0.3133 -0.81354,-0.764 l 0,-2.3484 c 0,-0.45071 0.36284,-0.7876 0.81354,-0.7876 l 21.13645,0 c 0.45071,0 0.81355,0.33689 0.81355,0.7876 l 0,2.3484 c 0,0.4507 -0.36284,0.764 -0.81355,0.764 l -1.15922,0 z"
       style="fill:#000000;fill-opacity:1;stroke:none" />
    <rect
       ry="0.57780612"
       y="343.82648"
       x="212.80722"
       height="2.8235166"
       width="21.728802"
       id="rect3886"
       style="fill:#ffd700;fill-opacity:1;stroke:none" />
    <rect
       style="fill:#ffd700;fill-opacity:1;stroke:none"
       id="rect3888"
       width="21.728802"
       height="2.8235166"
       x="212.80722"
       y="354.57651"
       ry="0.57780612" />
    <rect
       ry="0.57780612"
       y="347.0643"
       x="215.04762"
       height="7.0587916"
       width="17.462837"
       id="rect3890"
       style="fill:#cc0000;fill-opacity:1;stroke:none" />
    <path
       style="fill:#ffd700;fill-opacity:1;stroke:none"
       d="m 216.5,372.08904 7,-10.38904 0,19.5534 z"
       id="path3975"
       inkscape:connector-curvature="0"
       sodipodi:nodetypes="cccc" />
    <path
       sodipodi:nodetypes="cccc"
       inkscape:connector-curvature="0"
       id="path3977"
       d="m 230.9999,372.08904 -7,-10.38904 0,19.5534 z"
       style="fill:#ffd700;fill-opacity:1;stroke:none" />
    <path
       sodipodi:nodetypes="cccc"
       inkscape:connector-curvature="0"
       id="path3985"
       d="m 216.5,372.08904 7,-10.38904 0,19.5534 z"
       style="fill:#ffd700;fill-opacity:1;stroke:none"
       transform="matrix(0.26848206,0.96328469,-0.96328469,0.26848206,531.72186,63.86643)" />
    <path
       style="fill:#ffd700;fill-opacity:1;stroke:none"
       d="m 230.9999,372.08904 -7,-10.38904 0,19.5534 z"
       id="path3987"
       inkscape:connector-curvature="0"
       sodipodi:nodetypes="cccc"
       transform="matrix(0.26848206,0.96328469,-0.96328469,0.26848206,531.72186,63.86643)" />
    <path
       style="fill:#ffd700;fill-opacity:1;stroke:none"
       d="m 216.5,372.08904 7,-10.38904 0,19.5534 z"
       id="path3991"
       inkscape:connector-curvature="0"
       sodipodi:nodetypes="cccc"
       transform="matrix(-0.26848206,0.96328469,0.96328469,0.26848206,-84.280118,63.86643)" />
    <path
       sodipodi:nodetypes="cccc"
       inkscape:connector-curvature="0"
       id="path3993"
       d="m 230.9999,372.08904 -7,-10.38904 0,19.5534 z"
       style="fill:#ffd700;fill-opacity:1;stroke:none"
       transform="matrix(-0.26848206,0.96328469,0.96328469,0.26848206,-84.280118,63.86643)" />
    <path
       sodipodi:nodetypes="cccc"
       inkscape:connector-curvature="0"
       id="path3997"
       d="M 217.14813,371.66155 223.5,361.7 l -0.47231,20.08 z"
       style="fill:#ffd700;fill-opacity:1;stroke:none"
       transform="matrix(0.78631522,0.61782554,0.61782554,-0.78631522,-188.05742,544.83158)" />
    <path
       style="fill:#ffd700;fill-opacity:1;stroke:none"
       d="m 230.9999,372.08904 -7,-10.38904 -0.47231,20.08 z"
       id="path3999"
       inkscape:connector-curvature="0"
       sodipodi:nodetypes="cccc"
       transform="matrix(0.78631522,0.61782554,0.61782554,-0.78631522,-188.05742,544.83158)" />
    <path
       style="fill:#ffd700;fill-opacity:1;stroke:none"
       d="m 216.61029,371.92207 6.76038,-10.20346 0.5688,19.73297 z"
       id="path4003"
       inkscape:connector-curvature="0"
       sodipodi:nodetypes="cccc"
       transform="matrix(0.83439114,-0.55117279,0.55117279,0.83439114,-161.75398,204.03822)" />
    <path
       sodipodi:nodetypes="cccc"
       inkscape:connector-curvature="0"
       id="path4005"
       d="m 230.45204,371.35932 -6.5784,-9.62568 0.56935,19.62854 z"
       style="fill:#ffd700;fill-opacity:1;stroke:none"
       transform="matrix(0.83439114,-0.55117279,0.55117279,0.83439114,-161.75398,204.03822)" />
    <path
       sodipodi:nodetypes="ccc"
       inkscape:connector-curvature="0"
       id="path4007"
       d="m 221.05035,357.9 c 0.54456,4.15198 4.75383,4.12574 5.23004,0 z"
       style="fill:#ffd700;fill-opacity:1;stroke:none" />
  </g>
</svg>
